<?xml version="1.0" standalone="no"?>
<!DOCTYPE svg PUBLIC "-//W3C//DTD SVG 20010904//EN"
 "http://www.w3.org/TR/2001/REC-SVG-20010904/DTD/svg10.dtd">
<svg version="1.0" xmlns="http://www.w3.org/2000/svg"
 width="96.000000pt" height="96.000000pt" viewBox="0 0 96.000000 96.000000"
 preserveAspectRatio="xMidYMid meet">

<g transform="translate(0.000000,96.000000) scale(0.100000,-0.100000)"
fill="#000000" stroke="none">
<path d="M506 785 c-3 -9 -11 -13 -18 -9 -8 5 -9 2 -5 -9 5 -12 1 -17 -13 -17
-12 0 -20 -7 -20 -17 0 -15 2 -16 10 -3 5 8 12 11 16 8 3 -4 -1 -14 -9 -23
-14 -14 -16 -13 -23 7 -7 22 -7 22 -14 3 -7 -18 -8 -19 -15 -2 -9 21 -30 23
-21 2 3 -8 1 -15 -5 -15 -5 0 -13 -8 -16 -17 -10 -26 -45 -52 -70 -53 -16 0
-23 -8 -28 -31 -4 -17 -3 -34 1 -38 5 -3 9 -17 9 -31 0 -19 6 -26 25 -28 14
-2 32 -13 39 -25 11 -18 11 -20 0 -9 -18 17 -42 15 -35 -3 3 -9 0 -15 -8 -15
-15 0 -16 -16 -3 -37 9 -14 4 -16 -28 -14 -19 1 -19 1 -2 -10 14 -8 15 -14 7
-24 -6 -7 -10 -17 -9 -21 4 -22 -2 -26 -18 -12 -10 8 -26 18 -37 22 -15 5 -17
3 -10 -11 4 -10 8 -28 8 -40 1 -24 16 -33 16 -10 1 6 8 -1 17 -17 13 -25 13
-35 2 -68 -10 -32 -10 -41 0 -47 10 -6 9 -10 -3 -14 -11 -5 -16 -1 -16 13 0
26 -5 25 -32 -3 l-23 -22 -3 25 c-2 14 -8 30 -13 35 -7 7 -8 4 -4 -7 4 -9 -1
-27 -9 -41 -10 -14 -14 -32 -10 -42 5 -12 4 -16 -4 -11 -15 9 -26 -12 -14 -27
6 -7 12 -25 14 -42 l3 -30 382 -3 c354 -2 382 -1 376 15 -4 10 -2 14 4 10 5
-3 23 -2 39 3 l29 8 -28 1 c-31 1 -28 21 4 21 20 0 23 8 13 33 -7 20 -41 10
-47 -15 -5 -16 -9 -18 -27 -8 -13 7 -19 17 -15 29 4 12 -7 25 -39 45 -24 15
-50 41 -57 57 -6 17 -21 36 -33 44 l-20 15 21 0 c47 0 51 43 6 88 -13 13 -24
27 -24 32 -3 19 -5 25 -16 45 -6 11 -14 35 -18 53 -5 26 -19 41 -65 70 l-57
37 1 52 c0 28 4 49 9 46 4 -2 8 -1 8 4 8 57 7 72 -6 83 -9 7 -18 10 -22 6 -3
-3 -14 1 -23 9 -16 14 -18 14 -24 0z m-131 -155 c3 -5 -1 -10 -9 -10 -8 0 -18
5 -21 10 -3 6 1 10 9 10 8 0 18 -4 21 -10z m305 -177 c6 -21 16 -48 23 -61 9
-18 8 -25 -3 -32 -8 -5 -18 -6 -22 -4 -4 3 -5 -3 -1 -12 4 -11 2 -15 -7 -12
-18 6 -22 38 -4 38 22 0 16 36 -10 61 -19 18 -22 28 -15 41 15 28 26 22 39
-19z m20 -148 c0 -20 -12 -25 -26 -10 -19 19 -18 24 6 22 11 -1 20 -6 20 -12z
m30 5 c0 -5 -2 -10 -4 -10 -3 0 -8 5 -11 10 -3 6 -1 10 4 10 6 0 11 -4 11 -10z
m-550 -200 c0 -5 -5 -10 -11 -10 -5 0 -7 5 -4 10 3 6 8 10 11 10 2 0 4 -4 4
-10z"/>
<path d="M251 364 c0 -11 3 -14 6 -6 3 7 2 16 -1 19 -3 4 -6 -2 -5 -13z"/>
<path d="M196 255 c-24 -37 -19 -44 9 -11 27 32 29 36 16 36 -5 0 -16 -11 -25
-25z"/>
<path d="M860 140 c0 -5 10 -10 23 -10 18 0 19 2 7 10 -19 13 -30 13 -30 0z"/>
<path d="M935 10 c-19 -8 -19 -9 3 -9 12 -1 22 4 22 9 0 6 -1 10 -2 9 -2 0
-12 -4 -23 -9z"/>
</g>
</svg>
